<svg xmlns="http://www.w3.org/2000/svg" xmlns:xlink="http://www.w3.org/1999/xlink" width="800" height="450" viewBox="0 0 800 450"><defs><style>.a{clip-path:url(#b);}.b,.c{fill:#fff;}.b{opacity:0.4;}.d{fill:#e2e2e2;}</style><clipPath id="b"><rect width="800" height="450"/></clipPath></defs><g id="a" class="a"><rect class="d" width="800" height="450"/><g transform="translate(276 68)"><path class="b" d="M249.586,279.084H64v-23.2L98.561,221.32a5.8,5.8,0,0,1,8.216,0l26.818,26.833,65.492-65.5a5.8,5.8,0,0,1,8.216,0l42.284,42.3Z" transform="translate(-33.069 -60.429)"/><path class="c" d="M224.25,64H23.2A23.2,23.2,0,0,0,0,87.2v139.19a23.2,23.2,0,0,0,23.2,23.2H224.25a23.2,23.2,0,0,0,23.2-23.2V87.2A23.2,23.2,0,0,0,224.25,64ZM54.129,91.065a27.065,27.065,0,1,1-27.065,27.065A27.065,27.065,0,0,1,54.129,91.065Zm162.388,127.59H30.931v-23.2l34.561-34.565a5.8,5.8,0,0,1,8.216,0l26.818,26.833,65.492-65.5a5.8,5.8,0,0,1,8.216,0l42.284,42.3Z"/></g></g></svg>